<?xml version="1.0" encoding="UTF-8"?>
<svg width="92px" height="92px" viewBox="0 0 92 92" version="1.1" xmlns="http://www.w3.org/2000/svg" xmlns:xlink="http://www.w3.org/1999/xlink">
    <title>bear</title>
    <g id="bear" stroke="none" stroke-width="1" fill="none" fill-rule="evenodd">
        <circle id="Oval" stroke="#FE3671" stroke-width="2" fill="#FFFFFF" cx="46" cy="46" r="45"></circle>
        <g id="icons8-animal-(5)" transform="translate(16.000000, 16.000000)" fill-rule="nonzero">
            <path d="M42.807251,28.0896244 C42.9296838,27.5337468 43.0042916,26.9603634 43.0042916,26.3677558 C43.0042916,21.9565562 39.42828,18.3805464 35.0170784,18.3805464 C33.1057244,18.3805464 31.3748168,19.0796832 30,20.19956 C28.6251832,19.0796832 26.8942756,18.3805464 24.9829196,18.3805464 C20.571722,18.3805464 16.9958248,21.9565562 16.9958248,26.3677558 C16.9958248,26.9603632 17.0704288,27.5337466 17.1928654,28.0896244 C7.8417082,30.7382202 1.4102212,36.1789016 1.4102212,42.478798 C1.4102212,51.3766022 14.2102624,58.5898438 30.0000002,58.5898438 C45.789738,58.5898438 58.5897792,51.3766022 58.5897792,42.478798 C58.5897792,36.1789016 52.1582908,30.7382202 42.807251,28.0896244 Z" id="Path" fill="#FFFFFF"></path>
            <path d="M17.1928654,28.0896244 C17.0704288,27.5337468 16.9958248,26.9603634 16.9958248,26.3677558 C16.9958248,21.9565562 20.571722,18.3805464 24.9829196,18.3805464 C26.8942756,18.3805464 28.625183,19.0796832 30,20.19956 C31.3748168,19.0796832 33.1057244,18.3805464 35.0170784,18.3805464 C39.4282798,18.3805464 43.0042916,21.9565562 43.0042916,26.3677558 C43.0042916,26.9603632 42.9296838,27.5337466 42.807251,28.0896244 C45.9451256,28.978363 48.743164,30.187378 51.0908204,31.6321068 L51.0908204,22.5011044 C51.0908204,10.8529806 41.6481248,1.410284 30,1.410284 C18.3518752,1.410284 8.9091788,10.8529806 8.9091788,22.5011044 L8.9091788,31.6321068 C11.2569522,30.1874924 14.0548726,28.9784774 17.1928654,28.0896244 Z" id="Path" fill="#FFC2D4"></path>
            <path d="M19.6229096,4.1525946 C18.1788654,2.4863372 16.0725288,1.4102846 13.6944342,1.4102846 C9.3447952,1.4102846 5.8186736,4.9364062 5.8186736,9.2860442 C5.8186736,12.2478218 7.473031,14.796753 9.889573,16.1415922 C11.5074282,11.0210714 15.0308036,6.7555352 19.6229096,4.1525946 Z" id="Path" fill="#FFC2D4"></path>
            <path d="M40.3770904,4.1525946 C41.8211364,2.4863372 43.9274712,1.4102846 46.3055648,1.4102846 C50.6552046,1.4102846 54.1813278,4.9364062 54.1813278,9.2860442 C54.1813278,12.2478218 52.5269698,14.796753 50.1104278,16.1415922 C48.4925728,11.0210714 44.9691964,6.7555352 40.3770904,4.1525946 Z" id="Path" fill="#FFC2D4"></path>
            <path d="M30,59.9958992 C13.1795216,59.9958992 0.0041656,52.3010444 0.0041656,42.478798 C0.0041656,35.967556 5.953352,30.1419526 15.619978,27.0927526 C15.5998402,26.8492566 15.5897694,26.6085054 15.5897694,26.367756 C15.5897694,21.1884214 19.8033562,16.9748346 24.9826908,16.9748346 C26.7722988,16.9748346 28.486843,17.4865438 30,18.4632742 C31.5131568,17.4865438 33.2276992,16.9748346 35.0173072,16.9748346 C40.1966438,16.9748346 44.4102286,21.1884214 44.4102286,26.367756 C44.4102286,26.6085054 44.4001616,26.8501722 44.38002,27.0927526 C54.0466498,30.1419526 59.9958342,35.9675562 59.9958342,42.478798 C59.9958342,52.3010444 46.8204804,59.9958992 30,59.9958992 Z M24.9826908,19.7869432 C21.3540458,19.7869432 18.4018802,22.739109 18.4018802,26.3677558 C18.4018802,26.8199634 18.4558886,27.2840708 18.5657368,27.7884558 C18.7250156,28.5152854 18.2911168,29.2402818 17.576189,29.4425848 C8.6098432,31.9819066 2.8162756,37.0989912 2.8162756,42.4787978 C2.8162756,50.4501036 15.264803,57.1837882 29.999999,57.1837882 C44.735195,57.1837882 57.1837224,50.4501036 57.1837224,42.4787978 C57.1837224,37.0989912 51.3901548,31.9819068 42.4238118,29.4425848 C41.7079686,29.2393664 41.2740696,28.5134542 41.434264,27.7866266 C41.544112,27.2877328 41.5981206,26.8236254 41.5981206,26.3677556 C41.5981206,22.7391088 38.645953,19.7869432 35.0173062,19.7869432 C33.5224598,19.7869432 32.0944356,20.3068902 30.8879384,21.2900312 C30.3716496,21.7111146 29.6283464,21.7111146 29.1120614,21.2900312 C27.9055652,20.3068904 26.477539,19.7869432 24.9826908,19.7869432 Z" id="Shape" fill="#FE3671"></path>
            <path d="M51.0908204,33.0382766 C50.8354226,33.0382766 50.5800286,32.968708 50.3539238,32.8295668 C48.0727462,31.426258 45.4052696,30.2865828 42.4238128,29.4425848 C41.7079696,29.2393664 41.2740706,28.5134542 41.434265,27.7866266 C41.544113,27.2877328 41.5981216,26.8236254 41.5981216,26.3677556 C41.5981216,22.7391088 38.645954,19.7869432 35.0173072,19.7869432 C33.5224608,19.7869432 32.0944366,20.3068902 30.8879394,21.2900312 C30.3716506,21.7111146 29.6283474,21.7111146 29.1120624,21.2900312 C27.9055652,20.3068902 26.477539,19.7869432 24.9826908,19.7869432 C21.3540458,19.7869432 18.4018802,22.7391088 18.4018802,26.3677556 C18.4018802,26.8199632 18.4558886,27.2840706 18.5657368,27.7884556 C18.7250156,28.5152852 18.2911168,29.2393662 17.576189,29.4425846 C14.5947304,30.2865826 11.9272536,31.4262576 9.6460762,32.8295666 C9.2103462,33.095947 8.6675138,33.1069332 8.2235442,32.8597752 C7.7786598,32.610786 7.5031244,32.1411854 7.5031244,31.6322208 L7.5031244,22.501104 C7.5031244,10.0965166 17.5954114,0.0042298 30,0.0042298 C42.4045886,0.0042298 52.4968758,10.0965168 52.4968758,22.5011036 L52.4968758,31.6322204 C52.4968758,32.141185 52.2213402,32.6107856 51.776455,32.8597748 C51.5631676,32.978775 51.3269958,33.0382766 51.0908204,33.0382766 Z M44.3800202,27.093668 C46.2748986,27.6932544 48.0489464,28.4109288 49.684765,29.238451 L49.684765,22.5011044 C49.684765,11.6472054 40.853901,2.8163396 30.0000002,2.8163396 C19.1460994,2.8163396 10.3152354,11.6472054 10.3152354,22.5011044 L10.3152354,29.238451 C11.9510548,28.4109288 13.7251008,27.6932544 15.6199792,27.0927524 C15.5998414,26.8492564 15.5897706,26.6085052 15.5897706,26.3677558 C15.5897706,21.1884212 19.8033574,16.9748344 24.982692,16.9748344 C26.7723,16.9748344 28.4868442,17.4865436 30.0000012,18.463274 C31.513158,17.4865436 33.2277004,16.9748344 35.0173084,16.9748344 C40.196645,16.9748344 44.4102298,21.1884212 44.4102298,26.3677558 C44.4102288,26.6085052 44.4001618,26.850172 44.3800202,27.093668 Z" id="Shape" fill="#FE3671"></path>
            <path d="M9.889573,17.5478744 C9.6533994,17.5478744 9.4172258,17.4883728 9.2057684,17.3702868 C6.2490262,15.7253132 4.4127336,12.6275988 4.4127336,9.2863874 C4.4127336,4.1683854 8.576889,0.0042296 13.6948914,0.0042296 C16.358705,0.0042296 18.9071802,1.180519 20.685802,3.2319306 C20.9613376,3.5504898 21.080339,3.9761514 21.0089392,4.3917426 C20.9375376,4.8064192 20.6830554,5.168002 20.3159804,5.3757982 C15.9559308,7.8473788 12.729144,11.8211308 11.2306338,16.565651 C11.1033936,16.9684258 10.8013114,17.2924786 10.4095202,17.4480954 C10.2420016,17.5149212 10.0653296,17.5478744 9.889573,17.5478744 Z M13.694892,2.816339 C10.1275768,2.816339 7.224843,5.7190732 7.224843,9.2863874 C7.224843,11.0412102 7.9580784,12.701746 9.2085152,13.904582 C10.8745432,9.8704128 13.6765834,6.4211854 17.299738,3.9459428 C16.2369576,3.2163692 14.9837742,2.816339 13.694892,2.816339 Z" id="Shape" fill="#FE3671"></path>
            <path d="M50.1104278,17.5478744 C49.9346694,17.5478744 49.7579994,17.5149212 49.5904808,17.4480952 C49.1986886,17.2924784 48.8966064,16.9684256 48.7693672,16.5656508 C47.270855,11.8211306 44.0440712,7.8473786 39.6840172,5.375798 C39.3169442,5.168002 39.0624618,4.8073342 38.9910622,4.3917424 C38.9196586,3.9761512 39.038662,3.5504896 39.3141976,3.2319304 C41.0919038,1.1805188 43.6403772,0.0042294 46.3060228,0.0042294 C51.4240266,0.0042294 55.5872652,4.1683854 55.5872652,9.2863872 C55.5872652,12.6275986 53.750973,15.725313 50.7942316,17.3702866 C50.5827752,17.4883728 50.3465996,17.5478744 50.1104278,17.5478744 Z M42.700264,3.9459428 C46.3234176,6.4211854 49.1254578,9.8694982 50.7914848,13.904582 C52.0419234,12.701746 52.7751578,11.0412102 52.7751578,9.2863874 C52.7751578,5.7190732 49.8733366,2.816339 46.3060226,2.816339 C45.016224,2.816339 43.762127,3.2163692 42.700264,3.9459428 Z" id="Shape" fill="#FE3671"></path>
            <path d="M30,40.257122 C29.2869034,40.257122 28.5747222,39.998066 28.006258,39.47995 L24.729126,36.4920808 C23.8201332,35.6636468 23.5189666,34.3866616 23.963852,33.237835 C24.4078198,32.089924 25.4916536,31.3475342 26.722868,31.3475342 L33.277134,31.3475342 C34.5083466,31.3475342 35.5921784,32.0899238 36.0361482,33.237835 C36.4810334,34.3866616 36.179867,35.6636468 35.2699586,36.4929962 L31.99374,39.47995 C31.4252778,39.998066 30.7130966,40.257122 30,40.257122 Z M26.722868,34.1596412 L26.6240044,34.4141234 L29.9011364,37.4019888 C29.9578914,37.4532508 30.0421066,37.4532508 30.0988616,37.4019888 L33.3759956,34.4141234 L33.277134,34.1596412 L26.722868,34.1596412 Z" id="Shape" fill="#FE3671"></path>
            <path d="M30,46.4919128 C26.177288,46.4919128 24.4499282,43.7759208 24.0709534,42.3396568 C23.8723106,41.5890312 24.320858,40.820095 25.0714856,40.6214524 C25.8193666,40.4273874 26.5919648,40.8704416 26.789692,41.6219864 C26.8473626,41.8169632 27.4670868,43.6798058 30,43.6798058 C32.5329132,43.6798058 33.1526374,41.8169632 33.2148858,41.6045914 C33.4318352,40.8658638 34.1998558,40.4273872 34.9440766,40.636097 C35.6855508,40.8429794 36.1258584,41.5963554 35.9290466,42.3396568 C35.5500718,43.7759208 33.822712,46.4919128 30,46.4919128 Z" id="Path" fill="#FE3671"></path>
            <path d="M30,46.4919128 C29.2237416,46.4919128 28.5939446,45.8621178 28.5939446,45.0858574 L28.5939446,38.8428306 C28.5939446,38.0665702 29.2237416,37.4367752 30,37.4367752 C30.7762604,37.4367752 31.4060554,38.0665702 31.4060554,38.8428306 L31.4060554,45.0858574 C31.4060554,45.8621178 30.7762604,46.4919128 30,46.4919128 Z" id="Path" fill="#FE3671"></path>
            <circle id="Oval" fill="#FE3671" cx="34.57" cy="26.602" r="2.212"></circle>
            <circle id="Oval" fill="#FE3671" cx="25.43" cy="26.602" r="2.212"></circle>
        </g>
    </g>
</svg>