<?xml version="1.0" encoding="UTF-8"?>
<svg width="92px" height="92px" viewBox="0 0 92 92" version="1.1" xmlns="http://www.w3.org/2000/svg" xmlns:xlink="http://www.w3.org/1999/xlink">
    <title>cow</title>
    <g id="cow" stroke="none" stroke-width="1" fill="none" fill-rule="evenodd">
        <circle id="Oval" stroke="#09D2A0" stroke-width="2" fill="#FFFFFF" cx="46" cy="46" r="45"></circle>
        <g id="icons8-animal-(4)" transform="translate(16.000000, 16.000000)" fill-rule="nonzero">
            <ellipse id="Oval" fill="#45FFD1" cx="30" cy="46.142" rx="28.59" ry="12.448"></ellipse>
            <path d="M30,33.6933594 C38.3627548,33.6933594 45.862854,35.2663612 51.0908204,37.7584228 L51.0908204,22.5011044 C51.0908204,10.8529806 41.6481248,1.410284 30,1.410284 C18.3518752,1.410284 8.9091788,10.8529806 8.9091788,22.5011044 L8.9091788,37.7584228 C14.137144,35.2663612 21.637247,33.6933594 30,33.6933594 Z" id="Path" fill="#FFFFFF"></path>
            <path d="M11.0628872,13.2091064 C11.0696382,13.2135696 11.0758172,13.2160864 11.0825682,13.2205486 C12.3001652,10.7438192 13.9833574,8.5451422 16.0269872,6.7328786 L16.0133706,6.715372 C16.0133706,6.715372 12.600073,1.4102844 6.5071688,1.4102844 C6.5071688,1.4102844 4.868145,9.1604062 11.0628872,13.2091064 Z" id="Path" fill="#45FFD1"></path>
            <path d="M48.9371148,13.2091064 C48.9303628,13.2135696 48.924183,13.2160864 48.917431,13.2205486 C47.6998368,10.7438192 46.0166436,8.5451422 43.9730112,6.7328786 L43.9866296,6.715372 C43.9866296,6.715372 47.3999292,1.4102844 53.4928322,1.4102844 C53.4928322,1.4102844 55.131855,9.1604062 48.9371148,13.2091064 Z" id="Path" fill="#45FFD1"></path>
            <path d="M30,59.9958992 C13.1795216,59.9958992 0.0041656,53.9103164 0.0041656,46.1413154 C0.0041656,38.37323 13.1795216,32.2876472 30,32.2876472 C46.8204784,32.2876472 59.9958344,38.37323 59.9958344,46.1413154 C59.9958344,53.9103164 46.8204804,59.9958992 30,59.9958992 Z M30,35.0997582 C13.739746,35.0997582 2.8162766,40.8091088 2.8162766,46.1413156 C2.8162766,51.4744378 13.739747,57.1837884 30,57.1837884 C46.260253,57.1837884 57.1837234,51.4744378 57.1837234,46.1413156 C57.1837234,40.8091088 46.260254,35.0997582 30,35.0997582 Z" id="Shape" fill="#09D2A0"></path>
            <path d="M18.5565814,51.7161026 C15.627302,51.7161026 13.2445144,49.3333168 13.2445144,46.4040336 C13.2445144,43.4747542 15.6273022,41.0919684 18.5565814,41.0919684 C21.4849472,41.0919684 23.8677348,43.4747542 23.8677348,46.4040336 C23.8677348,49.3333168 21.4849472,51.7161026 18.5565814,51.7161026 Z M18.5565814,43.9040794 C17.1779898,43.9040794 16.0566234,45.025444 16.0566234,46.4040336 C16.0566234,47.782627 17.17799,48.9039916 18.5565814,48.9039916 C19.9342594,48.9039916 21.055624,47.782627 21.055624,46.4040336 C21.055624,45.025444 19.9342594,43.9040794 18.5565814,43.9040794 Z" id="Shape" fill="#09D2A0"></path>
            <path d="M41.4434166,51.7161026 C38.5150528,51.7161026 36.132267,49.3333168 36.132267,46.4040336 C36.132267,43.4747542 38.5150528,41.0919684 41.4434166,41.0919684 C44.3726998,41.0919684 46.7554856,43.4747542 46.7554856,46.4040336 C46.7554856,49.3333168 44.3726998,51.7161026 41.4434166,51.7161026 Z M41.4434166,43.9040794 C40.0657424,43.9040794 38.944374,45.025444 38.944374,46.4040336 C38.944374,47.782627 40.0657424,48.9039916 41.4434166,48.9039916 C42.82201,48.9039916 43.9433746,47.782627 43.9433746,46.4040336 C43.9433746,45.025444 42.82201,43.9040794 41.4434166,43.9040794 Z" id="Shape" fill="#09D2A0"></path>
            <path d="M51.0908204,39.164135 C50.8848572,39.164135 50.6779748,39.1192818 50.4857408,39.0277404 C45.2487374,36.5314446 37.7818184,35.0997582 30,35.0997582 C22.2181816,35.0997582 14.7512626,36.5314446 9.5142594,39.0277406 C9.0757828,39.234623 8.5677358,39.2025834 8.1585522,38.9471856 C7.7502832,38.6899568 7.5031252,38.2404976 7.5031252,37.7580796 L7.5031252,22.5011044 C7.5031252,10.0965166 17.5954114,0.0042298 30,0.0042298 C42.4045886,0.0042298 52.4968758,10.0965168 52.4968758,22.5011036 L52.4968758,37.7580788 C52.4968758,38.2404968 52.2497178,38.689956 51.8414498,38.9471848 C51.6125984,39.0909042 51.3526268,39.164135 51.0908204,39.164135 Z M30,32.2876472 C37.3643952,32.2876472 44.2555274,33.4602776 49.6847648,35.614212 L49.6847648,22.5011044 C49.6847648,11.6472054 40.8539008,2.8163396 30,2.8163396 C19.1460992,2.8163396 10.3152352,11.6472054 10.3152352,22.5011044 L10.3152352,35.614212 C15.7444726,33.4602776 22.6356048,32.2876472 30,32.2876472 Z" id="Shape" fill="#09D2A0"></path>
            <path d="M11.0823392,14.626833 C10.804058,14.626833 10.5285224,14.5435314 10.2941798,14.3851662 L10.2941798,14.3860818 C3.373754,9.862175 5.0562596,1.4743624 5.1313224,1.1191872 C5.2686324,0.4692532 5.8425884,0.0042298 6.5071688,0.0042298 C13.2893696,0.0042298 17.0397644,5.7108348 17.1962968,5.9543306 C17.5716114,6.5374412 17.4791564,7.324685 16.960125,7.784216 C15.0322914,9.4941836 13.478857,11.5318642 12.3437606,13.8414192 C12.1625118,14.2112408 11.82656,14.4831142 11.4256144,14.5838088 C11.3121052,14.613102 11.196764,14.626833 11.0823392,14.626833 Z M7.7347212,2.9023866 C7.60748,4.7844496 7.7878142,8.467105 10.6310472,11.0970498 C11.5995406,9.450245 12.7694216,7.9425804 14.1260452,6.5905342 C13.025734,5.343759 10.8269424,3.3399482 7.7347212,2.9023866 Z" id="Shape" fill="#09D2A0"></path>
            <path d="M48.9030152,14.669857 C48.7785188,14.669857 48.650364,14.6524638 48.5194626,14.6195088 C48.118515,14.518816 47.83749,14.2112408 47.6562386,13.8414192 C46.5202294,11.5309496 44.9677086,9.4941836 43.039875,7.786047 C42.492466,7.2999696 42.4082488,6.475194 42.847641,5.8893376 C42.9602356,5.7108346 46.7106324,0.0042296 53.4928322,0.0042296 C54.1574096,0.0042296 54.731369,0.4692528 54.868679,1.119187 C54.9437408,1.4743622 56.6271628,9.8621746 49.705822,14.3860814 L49.705822,14.3860814 C49.67836,14.4034746 49.6499824,14.4208676 49.6252632,14.4355142 C49.3991622,14.5966244 49.1584092,14.669857 48.9030152,14.669857 Z M45.8702926,6.5877876 C47.2278328,7.938919 48.3986282,9.4474982 49.3680382,11.0952186 C52.1856384,8.4771738 52.376957,4.7844496 52.258873,2.9033022 C49.1346092,3.3472714 46.9257508,5.3858676 45.8702926,6.5877876 Z" id="Shape" fill="#09D2A0"></path>
            <circle id="Oval" fill="#09D2A0" cx="22.188" cy="23.282" r="5.096"></circle>
            <circle id="Oval" fill="#09D2A0" cx="37.812" cy="23.282" r="5.096"></circle>
        </g>
    </g>
</svg>