<?xml version="1.0" encoding="UTF-8"?>
<svg width="92px" height="92px" viewBox="0 0 92 92" version="1.1" xmlns="http://www.w3.org/2000/svg" xmlns:xlink="http://www.w3.org/1999/xlink">
    <title>dog</title>
    <g id="dog" stroke="none" stroke-width="1" fill="none" fill-rule="evenodd">
        <circle id="Oval" stroke="#FDBF2E" stroke-width="2" fill="#FFFFFF" cx="46" cy="46" r="45"></circle>
        <g id="icons8-animal-(3)" transform="translate(16.000000, 19.000000)" fill-rule="nonzero">
            <path d="M56.5831032,26.0621604 C55.0783768,38.6763572 48.7908096,48.3010634 43.5421486,53.0725174 C38.0248222,58.0882682 33.655449,58.5898438 29.9996224,58.5898438 C26.3437958,58.5898438 21.9744206,58.0882684 16.4570962,53.0725174 C11.2084362,48.3010636 4.920869,38.6763572 3.4161436,26.0621604 C1.9114182,13.4480868 7.9303188,1.4102846 29.9996224,1.4102846 C52.068926,1.4102846 58.0878258,13.4480868 56.5831032,26.0621604 Z" id="Path" fill="#FFFFFF"></path>
            <path d="M43.2334672,34.1317864 C42.4843828,27.8521596 39.3542902,23.0607662 36.7413942,20.6854306 C33.9947474,18.1884804 31.8195726,17.9387838 29.9996226,17.9387838 C28.1796726,17.9387838 26.0044996,18.1884806 23.2578528,20.6854306 C20.644953,23.0607662 17.5148642,27.8521596 16.7657778,34.1317864 C16.0166914,40.4113504 19.013035,46.4040338 29.9996226,46.4040338 C40.9862102,46.4040338 43.9825516,40.4113502 43.2334672,34.1317864 Z" id="Path" fill="#FDD881"></path>
            <path d="M5.304871,12.8166284 C6.61561,10.181878 8.5913868,7.8494386 11.354865,5.9888872 C10.0166646,4.4152002 6.7848444,1.4102846 1.5928088,1.4102846 C1.5928088,1.4102846 0.16467,8.7949324 5.304871,12.8166284 Z" id="Path" fill="#FDD881"></path>
            <path d="M54.6951294,12.8166284 C53.3843918,10.181878 51.4086152,7.8494386 48.645134,5.9888872 C49.9833336,4.4152002 53.2151566,1.4102844 58.4071922,1.4102844 C58.4071922,1.4102844 59.835331,8.7949324 54.6951294,12.8166284 Z" id="Path" fill="#FDD881"></path>
            <path d="M30,59.9958992 C25.835844,59.9958992 21.1993428,59.2828026 15.5110454,54.1135368 C9.999421,49.1017188 3.5604954,39.1439972 2.0198774,26.2286148 C1.1429238,18.8724594 2.799798,12.5964746 6.8110818,8.0780592 C11.5684166,2.720222 19.3694572,0.0042298 30,0.0042298 C40.6305428,0.0042298 48.432499,2.7211376 53.188919,8.0780594 C57.2002028,12.5973904 58.8570746,18.8733752 57.979206,26.228614 C56.4385872,39.1439964 49.9996642,49.101718 44.4880408,54.1126206 C38.7997436,59.2828026 34.1632386,59.9958992 30,59.9958992 Z M30,2.816339 C20.207964,2.816339 13.1145286,5.2146878 8.9146728,9.944561 C4.5390586,14.87216 4.2690154,21.3385468 4.8118476,25.8954086 C6.2609262,38.0427704 12.265952,47.3615456 17.4022616,52.032833 C22.6319446,56.7855912 26.6468888,57.1837882 30,57.1837882 C33.3521958,57.1837882 37.3671418,56.785591 42.5968208,52.0319174 C47.7331314,47.3615454 53.7381592,38.0427702 55.1872368,25.8954084 C55.7309838,21.3385466 55.4600258,14.8730752 51.0853272,9.9454754 C46.8854714,5.2146878 39.7920342,2.816339 30,2.816339 Z" id="Shape" fill="#FDBF2E"></path>
            <path d="M30,47.8100892 C24.4966144,47.8100892 20.4349822,46.3774872 17.927702,43.5525628 C15.7920742,41.1478082 14.907797,37.8322298 15.3700734,33.9655762 C16.1600648,27.3399106 19.4738122,22.2237396 22.3124696,19.6450558 C25.3204746,16.9098416 27.784731,16.5326958 30,16.5326958 C32.2143516,16.5326958 34.6786118,16.9098416 37.686615,19.6459714 C40.5252724,22.2237398 43.8390198,27.3399106 44.6290092,33.9655762 C45.0912894,37.8331452 44.2070122,41.1478082 42.072296,43.5534782 C39.5641022,46.3774872 35.502472,47.8100892 30,47.8100892 Z M30,19.3448048 C28.3925572,19.3448048 26.6203422,19.528801 24.2036858,21.7257614 C21.7412586,23.9639148 18.8604946,28.4420528 18.1620446,34.2987824 C17.9084778,36.4225122 18.0265656,39.4286842 20.0303766,41.686062 C21.9810944,43.8839378 25.3360366,44.997982 30,44.997982 C34.6639634,44.997982 38.0179902,43.8839378 39.968708,41.6860618 C41.9725188,39.4295998 42.0906066,36.4234276 41.83704,34.2987822 L41.83704,34.2987822 C41.138588,28.4420526 38.257824,23.9639148 35.7953988,21.7266768 C33.3787422,19.528801 31.607441,19.3448048 30,19.3448048 Z" id="Shape" fill="#FDBF2E"></path>
            <path d="M33.4710388,26.3965588 L29.9996224,26.3965588 L26.528204,26.3965588 C24.8098164,26.3965588 23.9614258,28.4850426 25.1930104,29.6833878 L28.6644288,33.061161 C29.407673,33.7843704 30.5915718,33.7843704 31.334816,33.061161 L34.8062362,29.6833878 C36.037819,28.4850426 35.1894264,26.3965588 33.4710388,26.3965588 Z" id="Path" fill="#FFFFFF"></path>
            <path d="M29.9990844,35.0164566 C29.1660708,35.0164566 28.3330554,34.7006454 27.684038,34.0690194 L24.212839,30.6911928 C23.2397688,29.7446672 22.9404334,28.3193896 23.451227,27.0616286 C23.9620206,25.802954 25.170349,24.9900782 26.5278872,24.9900782 L33.4711988,24.9900782 C34.8287352,24.9900782 36.0370634,25.802954 36.547859,27.0616286 C37.0586508,28.3193896 36.7593152,29.7446674 35.7862432,30.6911928 L32.315048,34.0690194 C31.666027,34.7006454 30.8330154,35.0164566 29.9990844,35.0164566 Z M26.5278874,27.802187 C26.230381,27.802187 26.1049728,28.0008298 26.0573712,28.1198312 C26.0088558,28.237919 25.9603386,28.467684 26.173628,28.67548 L29.6448252,32.0533066 C29.843466,32.2482872 30.153786,32.2455406 30.3542598,32.0533066 L33.8254588,28.67548 C34.0387462,28.467684 33.9902308,28.237919 33.9417116,28.1198312 C33.8941118,28.0008298 33.7687036,27.802187 33.4711992,27.802187 L26.5278874,27.802187 Z" id="Shape" fill="#FDBF2E"></path>
            <circle id="Oval" fill="#FDBF2E" cx="16.658" cy="15.768" r="3.42"></circle>
            <circle id="Oval" fill="#FDBF2E" cx="43.342" cy="15.768" r="3.42"></circle>
            <path d="M5.3052488,14.2222252 C4.9940124,14.2222252 4.6882688,14.1187858 4.43928,13.9238052 C-1.3130952,9.4236974 0.1469684,1.478939 0.2119618,1.1429872 C0.340118,0.4820686 0.9186508,0.0042298 1.5923852,0.0042298 C7.2642048,0.0042298 10.8141268,3.1834144 12.4261464,5.0782932 C12.6852054,5.3831214 12.8023766,5.7840666 12.7483672,6.180435 C12.6934432,6.5777188 12.4719172,6.9319782 12.140542,7.1553364 C9.6964236,8.8003102 7.8207684,10.9158 6.5639238,13.4423046 C6.3762664,13.820365 6.0274992,14.0940704 5.6155692,14.1874408 C5.5130444,14.2112408 5.408689,14.2222252 5.3052488,14.2222252 Z M2.8455682,2.8831634 C2.743959,4.6562934 2.882184,8.0222206 4.9711276,10.5423174 C6.100731,8.7472172 7.5241786,7.1626596 9.2277384,5.8060364 C7.866538,4.562923 5.7537946,3.1971454 2.8455682,2.8831634 Z" id="Shape" fill="#FDBF2E"></path>
            <path d="M54.6947518,14.2231408 C54.5913124,14.2231408 54.4869538,14.2121564 54.38443,14.1883564 C53.9715844,14.094986 53.6237336,13.8212804 53.4360772,13.4432202 C52.1792336,10.9158002 50.3035776,8.8003102 47.859459,7.1553364 C47.5280838,6.9319782 47.3065568,6.5777188 47.2516328,6.1804352 C47.1976244,5.7840666 47.3147966,5.3831216 47.5738526,5.0782934 C49.1858712,3.1834146 52.7357942,0.00423 58.4076158,0.00423 C59.0813486,0.00423 59.6598818,0.4820688 59.7880364,1.1429878 C59.8530312,1.4789398 61.3130952,9.423698 55.5607186,13.9247214 C55.3117294,14.1197014 55.005989,14.2231408 54.6947518,14.2231408 Z M50.7722626,5.8060364 C52.4758224,7.1626596 53.9001846,8.7481326 55.0288734,10.5423174 C57.1178168,8.0222206 57.2560424,4.6562934 57.1544304,2.8831634 C54.2462044,3.1971454 52.133461,4.562923 50.7722626,5.8060364 Z" id="Shape" fill="#FDBF2E"></path>
            <path d="M30,39.6081048 C29.2237416,39.6081048 28.5939446,38.9783098 28.5939446,38.2020494 L28.5939446,33.6039964 C28.5939446,32.827736 29.2237416,32.197941 30,32.197941 C30.7762604,32.197941 31.4060554,32.827736 31.4060554,33.6039964 L31.4060554,38.2020494 C31.4060554,38.9783096 30.7762604,39.6081048 30,39.6081048 Z" id="Path" fill="#FDBF2E"></path>
        </g>
    </g>
</svg>