<?xml version="1.0" encoding="UTF-8"?>
<svg width="92px" height="92px" viewBox="0 0 92 92" version="1.1" xmlns="http://www.w3.org/2000/svg" xmlns:xlink="http://www.w3.org/1999/xlink">
    <title>cat</title>
    <g id="cat" stroke="none" stroke-width="1" fill="none" fill-rule="evenodd">
        <circle id="Oval" stroke="#FE3671" stroke-width="2" fill="#FFFFFF" cx="46" cy="46" r="45"></circle>
        <g id="icons8-animal-(2)" transform="translate(16.000000, 13.000000)" fill-rule="nonzero">
            <path d="M48.3491974,27.7304534 C44.34066,18.3225422 37.120533,12.7894058 30,12.7894058 C22.879467,12.7894058 15.65934,18.3225422 11.6508026,27.7304534 C5.6858262,41.729782 -5.0266456,58.5898552 27.2326316,58.5898552 C27.2326316,58.5898552 28.30056,58.5667382 30,58.481495 C31.69944,58.5667382 32.7673684,58.5898552 32.7673684,58.5898552 C65.0266418,58.5898552 54.3141746,41.7297822 48.3491974,27.7304534 Z" id="Path" fill="#FFFFFF"></path>
            <path d="M22.436964,32.2849044 C22.2337456,32.2849044 22.0277804,32.240963 21.8318844,32.1475944 L16.6800118,29.6869964 C15.9797306,29.351961 15.6822262,28.5134544 16.0172616,27.8122578 C16.3532144,27.1101456 17.18989,26.8144704 17.8920022,27.1495076 L23.0438748,29.6101036 C23.744156,29.945139 24.0416604,30.7836456 23.7066232,31.4848442 C23.4649582,31.9901428 22.9614888,32.2849044 22.436964,32.2849044 Z" id="Path" fill="#FE3671"></path>
            <path d="M30,43.2275962 C29.2869034,43.2275962 28.5747222,42.9694556 28.0071736,42.4522514 L24.729126,39.4634704 C23.8192178,38.634117 23.5189666,37.3562202 23.963852,36.2083092 C24.4087354,35.0603944 25.4916536,34.3189202 26.722868,34.3189202 L33.277134,34.3189202 C34.5083466,34.3189202 35.5912628,35.0603944 36.0361482,36.2083092 C36.4810334,37.3562202 36.1807824,38.6341172 35.2708742,39.4634704 L31.99374,42.451336 C31.4252778,42.9685402 30.712181,43.2275962 30,43.2275962 Z M26.6240044,37.3855134 L29.9011364,40.3733788 C29.9560604,40.4246408 30.0430222,40.4255562 30.0997772,40.3724632 L33.3759956,37.3855132 L33.277134,37.131031 L26.722868,37.131031 L25.6765652,38.4244918 L26.6240044,37.3855134 Z" id="Shape" fill="#FE3671"></path>
            <path d="M26.0573712,51.548584 C24.1176376,51.548584 22.3884468,50.7677498 21.1874428,49.3497924 C20.2180328,48.2055434 19.7337876,46.7811812 19.925106,45.6341858 C20.0523452,44.8679924 20.772766,44.3553696 21.5435332,44.4789506 C22.3088072,44.6061898 22.8269232,45.3311884 22.6987684,46.0973778 C22.6658132,46.2969322 22.8177698,46.923069 23.3331392,47.5327224 C23.7981642,48.0819626 24.6485708,48.7364768 26.057371,48.7364768 C28.1563834,48.7364768 28.6021842,45.5563734 28.6058462,45.5243376 C28.70837,44.754486 29.4086512,44.2079886 30.1849096,44.3150938 C30.9547612,44.4176176 31.4957654,45.1243056 31.3941534,45.8941572 C31.134182,47.849453 29.686018,51.548584 26.0573712,51.548584 Z" id="Path" fill="#FE3671"></path>
            <path d="M33.942627,51.548584 C30.313984,51.548584 28.86582,47.849453 28.6058464,45.8941574 C28.5042362,45.1243058 29.0452384,44.4176178 29.8150882,44.315094 C30.5895194,44.2107354 31.2888832,44.752655 31.393238,45.5188446 L31.393238,45.5188446 C31.3978156,45.5508842 31.8692474,48.7364768 33.9426268,48.7364768 C35.3514288,48.7364768 36.2018354,48.0819624 36.6668586,47.5327224 C37.1822318,46.923069 37.3341864,46.2969322 37.3012314,46.0973778 C37.1730766,45.3311882 37.6911926,44.6061898 38.4564666,44.4789506 C39.218994,44.352623 39.9467392,44.8679926 40.0748938,45.6341858 C40.2662124,46.7811814 39.781967,48.2055436 38.812557,49.3497924 C37.6115532,50.7677498 35.8823624,51.548584 33.942627,51.548584 Z" id="Path" fill="#FE3671"></path>
            <path d="M30,47.115303 C29.2237416,47.115303 28.5939446,46.485508 28.5939446,45.7092476 L28.5939446,41.8178788 C28.5939446,41.0416222 29.2237416,40.4118272 30,40.4118272 C30.7762604,40.4118272 31.4060554,41.0416222 31.4060554,41.8178788 L31.4060554,45.7092476 C31.4060554,46.485508 30.7762604,47.115303 30,47.115303 Z" id="Path" fill="#FE3671"></path>
            <path d="M11.8769064,40.176567 C11.5702476,40.176567 11.2626734,40.0777054 11.0036144,39.8726538 C10.9578448,39.8360404 6.3387356,36.2128866 1.1237002,35.1263044 C0.3630026,34.967941 -0.1249056,34.2228048 0.0334586,33.463024 C0.1909076,32.7023238 0.9406204,32.2125854 1.6967408,32.3727798 C7.5800178,33.598503 12.544233,37.5054282 12.7529446,37.6711158 C13.3598544,38.1535338 13.4614646,39.0368956 12.9790484,39.644722 C12.701682,39.9944038 12.2906676,40.176567 11.8769064,40.176567 Z" id="Path" fill="#FE3671"></path>
            <path d="M3.5174718,46.0918846 C2.8354988,46.0918846 2.236827,45.594822 2.1297254,44.900032 C2.0116386,44.1320114 2.5379938,43.4143372 3.305099,43.2962532 C6.4009828,42.8202438 11.6141868,42.6536408 11.8338828,42.647232 C12.6330266,42.611534 13.2591606,43.2330894 13.2829614,44.0084342 C13.3076768,44.7846908 12.6980204,45.433712 11.921761,45.4575118 C11.8695826,45.4593428 6.6591248,45.6250304 3.7335056,46.075405 C3.6602746,46.0863914 3.5888734,46.0918846 3.5174718,46.0918846 Z" id="Path" fill="#FE3671"></path>
            <path d="M1.4093054,59.9958992 C1.124616,59.9958992 0.8380958,59.909851 0.5900222,59.7322616 C-0.0406886,59.2791404 -0.1844064,58.4003562 0.2678014,57.7696456 C4.8347332,51.4094428 11.1061402,48.9332846 11.3706904,48.8307608 C12.0911102,48.5506476 12.9058162,48.9104002 13.1868448,49.6335676 C13.4678726,50.356735 13.1090354,51.17144 12.3867846,51.4533842 C12.3300296,51.475353 6.6115246,53.755615 2.55264,59.4100416 C2.27802,59.7926788 1.8468666,59.9958992 1.4093054,59.9958992 Z" id="Path" fill="#FE3671"></path>
            <path d="M37.5630378,32.2849044 C37.0385132,32.2849044 36.5350418,31.9901428 36.2933768,31.4848442 C35.9583396,30.7836456 36.255844,29.945139 36.956127,29.6101036 L42.1079978,27.1495076 C42.8064498,26.8126412 43.6467856,27.1101456 43.9827384,27.8122578 C44.3177756,28.5134544 44.0202712,29.3519612 43.3199882,29.6869964 L38.1681174,32.1475944 C37.9722214,32.240963 37.7662544,32.2849044 37.5630378,32.2849044 Z" id="Path" fill="#FE3671"></path>
            <path d="M48.1230926,40.176567 C47.7093314,40.176567 47.298317,39.9944038 47.0209502,39.644722 C46.538536,39.0368958 46.6401442,38.153534 47.247055,37.6711158 C47.4557648,37.5054282 52.4199828,33.598503 58.3032608,32.3727798 C59.0602952,32.2199096 59.8090934,32.7032394 59.9665412,33.463024 C60.1249046,34.2228048 59.6369972,34.9679412 58.8763008,35.1263044 C53.6612664,36.2128866 49.0421562,39.8360402 48.9963836,39.8726538 C48.7382432,40.0777054 48.4297524,40.176567 48.1230926,40.176567 Z" id="Path" fill="#FE3671"></path>
            <path d="M56.4825286,46.0918846 C56.411125,46.0918846 56.3397254,46.0863914 56.2664946,46.0754052 C53.3408736,45.6250306 48.1304168,45.459343 48.0782392,45.457512 C47.3019788,45.4337122 46.6923216,44.784691 46.717037,44.0084344 C46.7408408,43.2330896 47.3633116,42.6078722 48.1661184,42.6472322 C48.3858144,42.6536408 53.5990178,42.820244 56.6949002,43.2962534 C57.4620054,43.4143374 57.988361,44.1320116 57.8702732,44.9000322 C57.7631722,45.594822 57.1645012,46.0918846 56.4825286,46.0918846 Z" id="Path" fill="#FE3671"></path>
            <path d="M58.5906944,59.9958992 C58.1531334,59.9958992 57.721981,59.7926788 57.447361,59.4100418 C53.3884736,53.7556152 47.6699714,51.4753532 47.6132164,51.4533844 C46.8909646,51.1714402 46.5321274,50.3567352 46.8131562,49.6335678 C47.0932694,48.9094848 47.9052278,48.5497322 48.6293106,48.830761 C48.8938598,48.9332848 55.165268,51.409443 59.7322006,57.7696458 C60.1844062,58.4003564 60.0406876,59.2791406 59.409977,59.7322618 C59.1619034,59.909851 58.8744698,59.9958992 58.5906944,59.9958992 Z" id="Path" fill="#FE3671"></path>
            <path d="M24.319027,13.9620342 C22.5326234,11.4275198 17.6435852,3.2113456 12.1118212,1.4845572 C11.3681726,1.2523884 10.5689144,1.5779278 10.2163706,2.2727166 C8.8463602,4.9732614 6.9042234,16.019968 12.7536316,25.4173526 C15.6846276,19.7697906 19.8342514,15.8029042 24.319027,13.9620342 Z" id="Path" fill="#FFC2D4"></path>
            <path d="M47.2463684,25.4173526 C53.0957756,16.019968 51.1536408,4.9732608 49.7836304,2.2727164 C49.4310876,1.5779278 48.6318284,1.2523884 47.8881798,1.4845568 C42.3564148,3.211345 37.4673768,11.4275194 35.680973,13.9620338 C40.1657486,15.8029042 44.3153724,19.7697906 47.2463684,25.4173526 Z" id="Path" fill="#FFC2D4"></path>
            <path d="M32.7672538,59.9958992 C32.7370452,59.9958992 31.654129,59.9720994 29.9295138,59.8860512 C28.3467864,59.9720994 27.2629526,59.9958992 27.2629526,59.9958992 C15.4478834,59.9958992 8.2610758,57.7449302 5.262224,53.1148338 C1.4202894,47.1830406 5.1175908,38.9325408 8.6931442,30.9539108 C9.262523,29.6824208 9.8291562,28.420082 10.3573422,27.179716 C14.5086822,17.4361954 22.0351028,11.3835698 30,11.3835698 C37.9648972,11.3835698 45.4913178,17.4361954 49.6426582,27.1797162 L49.6426582,27.1797162 C50.170845,28.4200822 50.7374764,29.6824208 51.3068542,30.953911 C54.882408,38.932541 58.579708,47.1830408 54.7377738,53.114834 C51.738926,57.7449302 44.5521164,59.9958992 32.7672538,59.9958992 Z M29.929514,57.0776024 C31.7374306,57.160904 32.7873956,57.1837886 32.7974626,57.1837886 C43.3739968,57.1837886 49.9722024,55.3008118 52.3778726,51.5861168 C55.3886262,46.9377136 52.0089684,39.3966484 48.7409898,32.103653 C48.1633722,30.8166008 47.5903322,29.5377866 47.0557366,28.2818584 L47.0557366,28.2818584 C43.4096984,19.7246972 36.7153778,14.1956788 30,14.1956788 C23.2846222,14.1956788 16.5903016,19.7246972 12.9442634,28.2818586 C12.4096698,29.5377866 11.8366288,30.816601 11.2590112,32.1036532 C7.9910326,39.3966486 4.6113752,46.9377138 7.6221266,51.586117 C10.0277986,55.300812 16.6260032,57.1837886 27.2327452,57.1837886 C27.2190132,57.1837886 28.2680626,57.160904 29.929514,57.0776024 Z" id="Shape" fill="#FE3671"></path>
            <path d="M12.7538604,26.8236256 C12.2696132,26.8236256 11.8174056,26.573721 11.5601778,26.1608754 C5.313487,16.1253434 7.5040398,4.5098296 8.9622726,1.6363884 C9.6231908,0.3319432 11.1235322,-0.2978522 12.5295868,0.14154 C17.8517246,1.8039066 22.297823,8.4378122 24.6870174,12.0014652 C24.9909306,12.4545882 25.252735,12.8463796 25.468769,13.1521228 C25.7150116,13.5018066 25.7882442,13.9448598 25.6692408,14.3558754 C25.5493238,14.76689 25.2490728,15.1000942 24.8527048,15.2630372 C20.554901,17.0270124 16.7010648,20.8634552 14.0015504,26.0656744 C13.7690388,26.5133044 13.3140848,26.802571 12.8087842,26.8227106 C12.7904758,26.8236256 12.7721682,26.8236256 12.7538604,26.8236256 Z M11.6270028,2.816339 C11.565671,2.816339 11.5034238,2.842886 11.4704686,2.9087944 C10.4580366,4.9025364 8.598859,14.0016136 12.7703372,22.546875 C15.3188116,18.4541206 18.5895368,15.28409 22.229168,13.3855496 C20.1457176,10.2795974 15.9824772,4.165639 11.6929112,2.8264084 C11.6718568,2.8200006 11.649887,2.816339 11.6270028,2.816339 Z" id="Shape" fill="#FE3671"></path>
            <path d="M47.2461396,26.8236256 C47.2278328,26.8236256 47.2095224,26.8236256 47.1912156,26.82271 C46.685917,26.8025704 46.230961,26.5133038 45.9984514,26.0656738 C43.2989352,20.8634548 39.445099,17.0270118 35.147297,15.2630366 C34.750927,15.1000938 34.450676,14.7668894 34.3307572,14.3558748 C34.2117578,13.9448592 34.2849884,13.501806 34.5321466,13.1521222 C34.7481806,12.8454634 35.0109026,12.4527566 35.316643,11.9968878 C37.704922,8.435065 42.1501086,1.8029906 47.4685824,0.1424548 C48.8783,-0.2951064 50.3768084,0.332858 51.0377276,1.636388 C52.4959604,4.5098292 54.6865122,16.1253426 48.4398234,26.1608746 C48.1825942,26.573721 47.7303848,26.8236256 47.2461396,26.8236256 Z M37.770832,13.3855496 C41.4104652,15.28409 44.6811866,18.4541206 47.2296638,22.546875 C51.401142,14.0016136 49.5419654,4.9025364 48.5295296,2.9087944 C48.4837608,2.81817 48.3848992,2.801693 48.3052598,2.827324 C44.0175248,4.165639 39.8524514,10.282343 37.770832,13.3855496 Z" id="Shape" fill="#FE3671"></path>
        </g>
    </g>
</svg>